<svg width="128" height="128" viewBox="0 0 128 128" fill="none" xmlns="http://www.w3.org/2000/svg">
<circle cx="64" cy="64" r="48" fill="#3C5070"/>
<path fill-rule="evenodd" clip-rule="evenodd" d="M63.4973 39.5039C45.5492 39.5039 31 54.2589 31 72.4697V88.2539H36.9908V86.6831C36.9908 79.2947 42.8896 73.3093 50.1696 73.3093C57.4496 73.3093 63.3483 79.2947 63.3483 86.6804V88.2539H69.3392V86.6831C69.3392 75.9391 60.7537 67.2372 50.1696 67.2372C46.197 67.2323 42.3243 68.4816 39.1033 70.8068C42.375 64.2093 49.1106 59.681 56.8917 59.681C67.8794 59.681 76.7898 68.7214 76.7898 79.8662V88.2539H82.7806V79.8662C82.7806 65.3631 71.189 53.6008 56.889 53.6008C50.6967 53.5971 44.7135 55.8413 40.0512 59.9166C44.4983 51.3881 53.3275 45.5787 63.5 45.5787C78.1412 45.5787 90.0092 57.6199 90.0092 72.4724V88.2539H96V72.4697C95.9973 54.2589 81.4481 39.5039 63.4973 39.5039Z" fill="white"/>
</svg>
